<svg width="191" height="40" viewBox="0 0 191 40" fill="none" xmlns="http://www.w3.org/2000/svg">
<mask id="mask0_1_11" style="mask-type:luminance" maskUnits="userSpaceOnUse" x="1" y="1" width="38" height="38">
<path d="M20 36.6667C29.205 36.6667 36.6667 29.205 36.6667 20C36.6667 10.795 29.205 3.33333 20 3.33333C10.795 3.33333 3.33333 10.795 3.33333 20C3.33333 29.205 10.795 36.6667 20 36.6667Z" fill="white" stroke="white" stroke-width="3.33333" stroke-linejoin="round"/>
<path d="M20 15C20.663 15 21.2989 14.7366 21.7678 14.2678C22.2366 13.7989 22.5 13.163 22.5 12.5C22.5 11.837 22.2366 11.2011 21.7678 10.7322C21.2989 10.2634 20.663 10 20 10C19.337 10 18.7011 10.2634 18.2322 10.7322C17.7634 11.2011 17.5 11.837 17.5 12.5C17.5 13.163 17.7634 13.7989 18.2322 14.2678C18.7011 14.7366 19.337 15 20 15ZM20 30C20.663 30 21.2989 29.7366 21.7678 29.2678C22.2366 28.7989 22.5 28.163 22.5 27.5C22.5 26.837 22.2366 26.2011 21.7678 25.7322C21.2989 25.2634 20.663 25 20 25C19.337 25 18.7011 25.2634 18.2322 25.7322C17.7634 26.2011 17.5 26.837 17.5 27.5C17.5 28.163 17.7634 28.7989 18.2322 29.2678C18.7011 29.7366 19.337 30 20 30ZM12.5 22.5C13.163 22.5 13.7989 22.2366 14.2678 21.7678C14.7366 21.2989 15 20.663 15 20C15 19.337 14.7366 18.7011 14.2678 18.2322C13.7989 17.7634 13.163 17.5 12.5 17.5C11.837 17.5 11.2011 17.7634 10.7322 18.2322C10.2634 18.7011 10 19.337 10 20C10 20.663 10.2634 21.2989 10.7322 21.7678C11.2011 22.2366 11.837 22.5 12.5 22.5ZM27.5 22.5C28.163 22.5 28.7989 22.2366 29.2678 21.7678C29.7366 21.2989 30 20.663 30 20C30 19.337 29.7366 18.7011 29.2678 18.2322C28.7989 17.7634 28.163 17.5 27.5 17.5C26.837 17.5 26.2011 17.7634 25.7322 18.2322C25.2634 18.7011 25 19.337 25 20C25 20.663 25.2634 21.2989 25.7322 21.7678C26.2011 22.2366 26.837 22.5 27.5 22.5Z" fill="black" stroke="black" stroke-width="3.33333" stroke-linejoin="round"/>
<path d="M20 36.6667H36.6667" stroke="white" stroke-width="3.33333" stroke-linecap="round"/>
</mask>
<g mask="url(#mask0_1_11)">
<path d="M0 0H40V40H0V0Z" fill="white"/>
</g>
<path d="M48.56 30L47.432 13.248H50.144L50.672 22.896L50.888 26.88H51.104L52.784 17.112H55.712L57.392 26.88H57.608L57.824 22.896L58.352 13.248H60.968L59.84 30H55.784L54.296 20.52H54.104L52.616 30H48.56ZM72.1666 30L70.9906 25.752H66.0226L64.8706 30H61.7026L66.4066 13.248H70.7746L75.5026 30H72.1666ZM68.6146 16.344H68.4226L66.5746 23.184H70.4626L68.6146 16.344ZM84.5413 15.84V30H81.4213V15.84H76.3813V13.248H89.5813V15.84H84.5413ZM97.8039 30.288C95.6119 30.288 93.9879 29.536 92.9319 28.032C91.8919 26.528 91.3719 24.392 91.3719 21.624C91.3719 18.872 91.8919 16.744 92.9319 15.24C93.9879 13.72 95.6119 12.96 97.8039 12.96C98.6359 12.96 99.3639 13.072 99.9879 13.296C100.628 13.52 101.18 13.832 101.644 14.232C102.108 14.616 102.492 15.088 102.796 15.648C103.1 16.192 103.34 16.792 103.516 17.448L100.636 18.264C100.524 17.88 100.396 17.52 100.252 17.184C100.108 16.848 99.9239 16.56 99.6999 16.32C99.4919 16.064 99.2279 15.872 98.9079 15.744C98.5879 15.6 98.2039 15.528 97.7559 15.528C96.6679 15.528 95.8839 15.944 95.4039 16.776C94.9399 17.608 94.7079 18.744 94.7079 20.184V23.064C94.7079 24.504 94.9399 25.64 95.4039 26.472C95.8839 27.304 96.6679 27.72 97.7559 27.72C98.2039 27.72 98.5879 27.656 98.9079 27.528C99.2279 27.384 99.4919 27.192 99.6999 26.952C99.9239 26.696 100.108 26.4 100.252 26.064C100.396 25.728 100.524 25.368 100.636 24.984L103.516 25.8C103.34 26.456 103.1 27.064 102.796 27.624C102.492 28.168 102.108 28.64 101.644 29.04C101.18 29.424 100.628 29.728 99.9879 29.952C99.3639 30.176 98.6359 30.288 97.8039 30.288ZM114.211 22.8H109.315V30H106.171V13.248H109.315V20.208H114.211V13.248H117.355V30H114.211V22.8ZM135.744 30V13.248H138.888V27.408H146.304V30H135.744ZM149.606 30V27.648H153.374V15.6H149.606V13.248H160.262V15.6H156.494V27.648H160.262V30H149.606ZM169.133 30.288C167.693 30.288 166.461 30.04 165.437 29.544C164.429 29.048 163.605 28.392 162.965 27.576L164.861 25.608C165.485 26.328 166.157 26.864 166.877 27.216C167.613 27.552 168.397 27.72 169.229 27.72C170.189 27.72 170.925 27.504 171.437 27.072C171.949 26.64 172.205 26.016 172.205 25.2C172.205 24.528 172.013 24.024 171.629 23.688C171.245 23.336 170.597 23.088 169.685 22.944L167.909 22.656C166.357 22.384 165.253 21.824 164.597 20.976C163.941 20.112 163.613 19.096 163.613 17.928C163.613 16.328 164.133 15.104 165.173 14.256C166.213 13.392 167.653 12.96 169.493 12.96C170.805 12.96 171.933 13.168 172.877 13.584C173.837 14 174.605 14.568 175.181 15.288L173.333 17.256C172.885 16.728 172.349 16.312 171.725 16.008C171.101 15.688 170.365 15.528 169.517 15.528C167.693 15.528 166.781 16.28 166.781 17.784C166.781 18.424 166.973 18.912 167.357 19.248C167.741 19.584 168.397 19.832 169.325 19.992L171.077 20.304C172.533 20.576 173.613 21.112 174.317 21.912C175.021 22.712 175.373 23.736 175.373 24.984C175.373 25.768 175.237 26.488 174.965 27.144C174.693 27.784 174.293 28.344 173.765 28.824C173.237 29.288 172.581 29.648 171.797 29.904C171.029 30.16 170.141 30.288 169.133 30.288ZM185.276 15.84V30H182.156V15.84H177.116V13.248H190.316V15.84H185.276Z" fill="white"/>
</svg>
